<svg width="104" height="63" viewBox="0 0 104 63" fill="none" xmlns="http://www.w3.org/2000/svg">
<g filter="url(#filter0_d_555981_590)">
<mask id="path-1-inside-1_555981_590" fill="white">
<path fill-rule="evenodd" clip-rule="evenodd" d="M50.1136 5.93452H49.977C49.7671 5.92181 49.5571 5.91672 49.3471 5.91163H49.3471H49.3269H48.8918C48.4946 5.91163 48.0898 5.92181 47.6876 5.94215C47.6573 5.93994 47.6269 5.93994 47.5966 5.94215C43.9522 6.14863 40.3817 7.05951 37.0805 8.62492L36.6479 8.83344V30.9746L37.6598 30.6313C38.5477 30.3261 39.4938 30.0515 40.4728 29.7972C43.1193 29.1178 45.8367 28.7567 48.568 28.7216V31.6306C48.2062 31.6332 47.8546 31.6434 47.503 31.6612H47.4195C45.3175 31.7765 43.2317 32.0967 41.1913 32.6173C38.6072 33.2643 36.1143 34.2357 33.7716 35.5086V7.11189C36.2047 5.69275 38.8253 4.62687 41.5556 3.94596C43.9527 3.32705 46.4169 3.00931 48.8918 3H49.3193C49.8303 3.01271 50.3287 3.0356 50.7967 3.0712C52.0297 3.15778 53.2528 3.35263 54.4521 3.65353V6.51685C53.2874 6.24551 52.1032 6.06695 50.9105 5.98284C50.8863 5.98079 50.8621 5.97872 50.8379 5.97666C50.5911 5.95561 50.344 5.93452 50.1136 5.93452ZM55.1528 8.86138C55.7877 8.9097 56.4455 8.93259 57.1108 8.93259C59.7125 8.92307 62.3031 8.59083 64.8239 7.94339C67.4068 7.29396 69.8986 6.32178 72.2411 5.04956V32.9402C69.8067 34.3585 67.1853 35.4243 64.4546 36.1061C62.0571 36.7227 59.5931 37.0395 57.1184 37.0496C55.2433 37.0647 53.3737 36.8443 51.553 36.3935V8.32229C51.983 8.42146 52.4257 8.51301 52.876 8.58929C53.6147 8.7139 54.3939 8.80544 55.1528 8.86138ZM69.3471 9.07753L68.3352 9.41828C67.4042 9.73106 66.4657 10.0108 65.5221 10.26C62.7749 10.966 59.9514 11.3281 57.1158 11.3382C56.4556 11.3382 55.8485 11.3204 55.2616 11.2822L54.4546 11.2288V31.3178V34.0057L55.1477 34.0667C55.7903 34.1227 56.4531 34.1506 57.1209 34.1506C59.3544 34.1412 61.5781 33.8533 63.7412 33.2937C65.5223 32.8469 67.2552 32.2243 68.9145 31.4348L69.3471 31.2263V9.07753Z"/>
</mask>
<path fill-rule="evenodd" clip-rule="evenodd" d="M50.1136 5.93452H49.977C49.7671 5.92181 49.5571 5.91672 49.3471 5.91163H49.3471H49.3269H48.8918C48.4946 5.91163 48.0898 5.92181 47.6876 5.94215C47.6573 5.93994 47.6269 5.93994 47.5966 5.94215C43.9522 6.14863 40.3817 7.05951 37.0805 8.62492L36.6479 8.83344V30.9746L37.6598 30.6313C38.5477 30.3261 39.4938 30.0515 40.4728 29.7972C43.1193 29.1178 45.8367 28.7567 48.568 28.7216V31.6306C48.2062 31.6332 47.8546 31.6434 47.503 31.6612H47.4195C45.3175 31.7765 43.2317 32.0967 41.1913 32.6173C38.6072 33.2643 36.1143 34.2357 33.7716 35.5086V7.11189C36.2047 5.69275 38.8253 4.62687 41.5556 3.94596C43.9527 3.32705 46.4169 3.00931 48.8918 3H49.3193C49.8303 3.01271 50.3287 3.0356 50.7967 3.0712C52.0297 3.15778 53.2528 3.35263 54.4521 3.65353V6.51685C53.2874 6.24551 52.1032 6.06695 50.9105 5.98284C50.8863 5.98079 50.8621 5.97872 50.8379 5.97666C50.5911 5.95561 50.344 5.93452 50.1136 5.93452ZM55.1528 8.86138C55.7877 8.9097 56.4455 8.93259 57.1108 8.93259C59.7125 8.92307 62.3031 8.59083 64.8239 7.94339C67.4068 7.29396 69.8986 6.32178 72.2411 5.04956V32.9402C69.8067 34.3585 67.1853 35.4243 64.4546 36.1061C62.0571 36.7227 59.5931 37.0395 57.1184 37.0496C55.2433 37.0647 53.3737 36.8443 51.553 36.3935V8.32229C51.983 8.42146 52.4257 8.51301 52.876 8.58929C53.6147 8.7139 54.3939 8.80544 55.1528 8.86138ZM69.3471 9.07753L68.3352 9.41828C67.4042 9.73106 66.4657 10.0108 65.5221 10.26C62.7749 10.966 59.9514 11.3281 57.1158 11.3382C56.4556 11.3382 55.8485 11.3204 55.2616 11.2822L54.4546 11.2288V31.3178V34.0057L55.1477 34.0667C55.7903 34.1227 56.4531 34.1506 57.1209 34.1506C59.3544 34.1412 61.5781 33.8533 63.7412 33.2937C65.5223 32.8469 67.2552 32.2243 68.9145 31.4348L69.3471 31.2263V9.07753Z" fill="#8E8F99"/>
<path d="M49.977 5.93452L49.9166 6.93269L49.9468 6.93452H49.977V5.93452ZM49.3471 5.91163L49.3714 4.91193L49.3592 4.91163H49.3471V5.91163ZM47.6876 5.94215L47.615 6.93951L47.6765 6.94399L47.7381 6.94087L47.6876 5.94215ZM47.5966 5.94215L47.6531 6.94055L47.6612 6.94009L47.6692 6.93951L47.5966 5.94215ZM37.0805 8.62492L36.652 7.72134L36.6463 7.72411L37.0805 8.62492ZM36.6479 8.83344L36.2137 7.93263L35.6479 8.20536V8.83344H36.6479ZM36.6479 30.9746H35.6479V32.3698L36.9692 31.9216L36.6479 30.9746ZM37.6598 30.6313L37.9811 31.5783L37.9848 31.577L37.6598 30.6313ZM40.4728 29.7972L40.2242 28.8286L40.2214 28.8293L40.4728 29.7972ZM48.568 28.7216H49.568V27.7086L48.5551 27.7216L48.568 28.7216ZM48.568 31.6306L48.575 32.6306L49.568 32.6236V31.6306H48.568ZM47.503 31.6612V32.6612H47.5282L47.5535 32.6599L47.503 31.6612ZM47.4195 31.6612V30.6612H47.3921L47.3647 30.6627L47.4195 31.6612ZM41.1913 32.6173L41.4342 33.5874L41.4385 33.5863L41.1913 32.6173ZM33.7716 35.5086H32.7716V37.19L34.249 36.3873L33.7716 35.5086ZM33.7716 7.11189L33.2678 6.24808L32.7716 6.53749V7.11189H33.7716ZM41.5556 3.94596L41.7976 4.91628L41.8056 4.91421L41.5556 3.94596ZM48.8918 3V1.99999L48.888 2.00001L48.8918 3ZM49.3193 3L49.3442 2.00031L49.3317 2H49.3193V3ZM50.7967 3.0712L50.7208 4.06834L50.7266 4.06875L50.7967 3.0712ZM54.4521 3.65353H55.4521V2.87344L54.6955 2.68359L54.4521 3.65353ZM54.4521 6.51685L54.2252 7.49077L55.4521 7.77659V6.51685H54.4521ZM50.9105 5.98284L50.8262 6.97938L50.8401 6.98036L50.9105 5.98284ZM50.8379 5.97666L50.7528 6.97304L50.7529 6.97304L50.8379 5.97666ZM57.1108 8.93259V9.93259L57.1144 9.93258L57.1108 8.93259ZM55.1528 8.86138L55.2286 7.86426L55.2263 7.86409L55.1528 8.86138ZM64.8239 7.94339L64.5801 6.97357L64.5751 6.97483L64.8239 7.94339ZM72.2411 5.04956H73.2411V3.36848L71.7638 4.1708L72.2411 5.04956ZM72.2411 32.9402L72.7445 33.8043L73.2411 33.5149V32.9402H72.2411ZM64.4546 36.1061L64.2123 35.1359L64.2055 35.1376L64.4546 36.1061ZM57.1184 37.0496L57.1143 36.0496L57.1103 36.0496L57.1184 37.0496ZM51.553 36.3935H50.553V37.1761L51.3126 37.3642L51.553 36.3935ZM51.553 8.32229L51.7777 7.34786L50.553 7.06543V8.32229H51.553ZM52.876 8.58929L52.709 9.57524L52.7097 9.57536L52.876 8.58929ZM68.3352 9.41828L68.6537 10.3662L68.6543 10.366L68.3352 9.41828ZM69.3471 9.07753H70.3471V7.68561L69.0279 8.12982L69.3471 9.07753ZM65.5221 10.26L65.771 11.2285L65.7775 11.2268L65.5221 10.26ZM57.1158 11.3382V12.3382L57.1194 12.3382L57.1158 11.3382ZM55.2616 11.2822L55.1955 12.2801L55.1967 12.2801L55.2616 11.2822ZM54.4546 11.2288L54.5206 10.231L53.4546 10.1605V11.2288H54.4546ZM54.4546 34.0057H53.4546V34.9215L54.3669 35.0018L54.4546 34.0057ZM55.1477 34.0667L55.06 35.0629L55.061 35.063L55.1477 34.0667ZM57.1209 34.1506V35.1506L57.1251 35.1506L57.1209 34.1506ZM63.7412 33.2937L63.4979 32.3237L63.4907 32.3256L63.7412 33.2937ZM68.9145 31.4348L69.3441 32.3378L69.3487 32.3356L68.9145 31.4348ZM69.3471 31.2263L69.7813 32.1271L70.3471 31.8544V31.2263H69.3471ZM49.977 6.93452H50.1136V4.93452H49.977V6.93452ZM49.3229 6.91134C49.5359 6.9165 49.7277 6.92126 49.9166 6.93269L50.0375 4.93635C49.8064 4.92236 49.5783 4.91694 49.3714 4.91193L49.3229 6.91134ZM49.3471 6.91163H49.3471V4.91163H49.3471V6.91163ZM49.3269 6.91163H49.3471V4.91163H49.3269V6.91163ZM48.8918 6.91163H49.3269V4.91163H48.8918V6.91163ZM47.7381 6.94087C48.1236 6.92138 48.5115 6.91163 48.8918 6.91163V4.91163C48.4777 4.91163 48.0561 4.92223 47.6371 4.94343L47.7381 6.94087ZM47.6692 6.93951C47.6512 6.94082 47.633 6.94082 47.615 6.93951L47.7603 4.94479C47.6816 4.93906 47.6026 4.93906 47.5239 4.94479L47.6692 6.93951ZM37.5089 9.52848C40.6936 8.01835 44.1379 7.13972 47.6531 6.94055L47.54 4.94375C43.7666 5.15754 40.0698 6.10068 36.652 7.72136L37.5089 9.52848ZM37.0821 9.73425L37.5147 9.52573L36.6463 7.72411L36.2137 7.93263L37.0821 9.73425ZM37.6479 30.9746V8.83344H35.6479V30.9746H37.6479ZM37.3385 29.6843L36.3266 30.0276L36.9692 31.9216L37.9811 31.5783L37.3385 29.6843ZM40.2214 28.8293C39.2256 29.088 38.2537 29.3698 37.3348 29.6856L37.9848 31.577C38.8418 31.2825 39.762 31.015 40.7243 30.7651L40.2214 28.8293ZM48.5551 27.7216C45.7443 27.7578 42.9477 28.1294 40.2242 28.8286L40.7215 30.7658C43.291 30.1062 45.9292 29.7556 48.5808 29.7215L48.5551 27.7216ZM49.568 31.6306V28.7216H47.568V31.6306H49.568ZM47.5535 32.6599C47.8905 32.6428 48.2276 32.6331 48.575 32.6306L48.5609 30.6307C48.1848 30.6333 47.8186 30.6439 47.4524 30.6624L47.5535 32.6599ZM47.4195 32.6612H47.503V30.6612H47.4195V32.6612ZM41.4385 33.5863C43.4159 33.0817 45.4373 32.7714 47.4742 32.6597L47.3647 30.6627C45.1978 30.7815 43.0475 31.1117 40.9441 31.6483L41.4385 33.5863ZM34.249 36.3873C36.5178 35.1545 38.9318 34.2138 41.4342 33.5874L40.9484 31.6472C38.2825 32.3147 35.7109 33.3168 33.2942 34.6299L34.249 36.3873ZM32.7716 7.11189V35.5086H34.7716V7.11189H32.7716ZM41.3136 2.97568C38.4914 3.67953 35.7826 4.78128 33.2678 6.24808L34.2754 7.97569C36.6268 6.60422 39.1593 5.57422 41.7976 4.91624L41.3136 2.97568ZM48.888 2.00001C46.33 2.00963 43.7831 2.33804 41.3056 2.97772L41.8056 4.91421C44.1223 4.31606 46.5037 4.00899 48.8955 3.99999L48.888 2.00001ZM49.3193 2H48.8918V4H49.3193V2ZM50.8725 2.07408C50.384 2.03692 49.8682 2.01335 49.3442 2.00031L49.2944 3.99969C49.7924 4.01208 50.2733 4.03428 50.7208 4.06832L50.8725 2.07408ZM54.6955 2.68359C53.4394 2.36843 52.1582 2.16434 50.8667 2.07366L50.7266 4.06875C51.9012 4.15121 53.0663 4.33682 54.2087 4.62346L54.6955 2.68359ZM55.4521 6.51685V3.65353H53.4521V6.51685H55.4521ZM50.8401 6.98036C51.9801 7.06075 53.1119 7.23142 54.2252 7.49077L54.679 5.54293C53.4628 5.2596 52.2262 5.07315 50.9808 4.98531L50.8401 6.98036ZM50.7529 6.97304C50.777 6.9751 50.8016 6.9772 50.8262 6.97928L50.9947 4.98639C50.971 4.98438 50.9472 4.98235 50.9229 4.98028L50.7529 6.97304ZM50.1136 6.93452C50.2936 6.93452 50.4967 6.95118 50.7528 6.97304L50.9229 4.98028C50.6856 4.96003 50.3944 4.93452 50.1136 4.93452V6.93452ZM57.1108 7.93259C56.468 7.93259 55.8358 7.91046 55.2286 7.86427L55.0769 9.8585C55.7397 9.90894 56.4229 9.93259 57.1108 9.93259V7.93259ZM64.5751 6.97483C62.1344 7.60171 59.6261 7.92338 57.1071 7.93259L57.1144 9.93258C59.7989 9.92277 62.4718 9.57996 65.0727 8.91196L64.5751 6.97483ZM71.7638 4.1708C69.495 5.40304 67.0816 6.34461 64.5801 6.97358L65.0678 8.91321C67.7321 8.24331 70.3023 7.24052 72.7183 5.92832L71.7638 4.1708ZM73.2411 32.9402V5.04956H71.2411V32.9402H73.2411ZM64.6968 37.0764C67.5193 36.3716 70.2285 35.27 72.7445 33.8043L71.7377 32.0762C69.3848 33.447 66.8514 34.477 64.2123 35.1359L64.6968 37.0764ZM57.1224 38.0495C59.6798 38.0392 62.2261 37.7118 64.7036 37.0746L64.2055 35.1376C61.888 35.7336 59.5063 36.0399 57.1143 36.0496L57.1224 38.0495ZM51.3126 37.3642C53.2146 37.8351 55.1676 38.0653 57.1264 38.0495L57.1103 36.0496C55.319 36.064 53.5328 35.8535 51.7933 35.4228L51.3126 37.3642ZM50.553 8.32229V36.3935H52.553V8.32229H50.553ZM53.0431 7.60334C52.616 7.53098 52.1929 7.44361 51.7777 7.34786L51.3283 9.29671C51.7732 9.39931 52.2355 9.49503 52.709 9.57524L53.0431 7.60334ZM55.2263 7.86409C54.4959 7.81025 53.7478 7.72222 53.0424 7.60322L52.7097 9.57536C53.4816 9.70557 54.2918 9.80063 55.0793 9.85868L55.2263 7.86409ZM68.6543 10.366L69.6662 10.0252L69.0279 8.12982L68.016 8.47057L68.6543 10.366ZM65.7775 11.2268C66.7414 10.9723 67.701 10.6863 68.6537 10.3662L68.0167 8.47035C67.1075 8.77584 66.19 9.0493 65.2668 9.29314L65.7775 11.2268ZM57.1194 12.3382C60.0378 12.3278 62.9436 11.9551 65.771 11.2285L65.2732 9.29145C62.6061 9.97683 59.8651 10.3284 57.1123 10.3382L57.1194 12.3382ZM55.1967 12.2801C55.8084 12.3199 56.4374 12.3382 57.1158 12.3382V10.3382C56.4738 10.3382 55.8885 10.3209 55.3264 10.2843L55.1967 12.2801ZM54.3885 12.2267L55.1955 12.2801L55.3276 10.2844L54.5206 10.231L54.3885 12.2267ZM55.4546 31.3178V11.2288H53.4546V31.3178H55.4546ZM55.4546 34.0057V31.3178H53.4546V34.0057H55.4546ZM55.2354 33.0706L54.5423 33.0095L54.3669 35.0018L55.06 35.0629L55.2354 33.0706ZM57.1209 33.1506C56.4807 33.1506 55.8468 33.1238 55.2345 33.0705L55.061 35.063C55.7337 35.1215 56.4255 35.1506 57.1209 35.1506V33.1506ZM63.4907 32.3256C61.4081 32.8644 59.2671 33.1415 57.1167 33.1506L57.1251 35.1506C59.4418 35.1408 61.7482 34.8422 63.9917 34.2618L63.4907 32.3256ZM68.4848 30.5318C66.8853 31.2929 65.2148 31.8931 63.4979 32.3237L63.9845 34.2636C65.8298 33.8008 67.6251 33.1557 69.3441 32.3378L68.4848 30.5318ZM68.9128 30.3255L68.4803 30.534L69.3487 32.3356L69.7813 32.1271L68.9128 30.3255ZM68.3471 9.07753V31.2263H70.3471V9.07753H68.3471Z" fill="black" mask="url(#path-1-inside-1_555981_590)"/>
<path d="M35.7371 45.2124C35.5917 45.0615 35.4163 44.943 35.2224 44.8646C35.0284 44.7862 34.8203 44.7496 34.6114 44.7572C34.3888 44.7542 34.1678 44.7957 33.9613 44.8793C33.7719 44.9547 33.5998 45.068 33.4553 45.2124C33.3125 45.3572 33.2013 45.5304 33.129 45.721C33.0497 45.9207 33.0101 46.1341 33.0126 46.3491V50.1431C33.0036 50.4104 33.0546 50.6764 33.1619 50.9212C33.2514 51.1156 33.3807 51.2889 33.5413 51.4298C33.693 51.5575 33.871 51.6495 34.0625 51.6994C34.2469 51.7512 34.4376 51.7777 34.6291 51.7782C34.8404 51.7803 35.0495 51.7351 35.2413 51.646C35.4309 51.563 35.6028 51.4438 35.7473 51.295C35.8881 51.1476 36.0005 50.9752 36.0786 50.7864C36.1597 50.5951 36.201 50.3892 36.2001 50.1812V49.7566H35.2084V50.0948C35.2114 50.2103 35.1916 50.3252 35.1502 50.433C35.1179 50.5137 35.0688 50.5866 35.006 50.6466C34.9446 50.6962 34.8742 50.7334 34.7986 50.7559C34.7316 50.7782 34.6617 50.7902 34.5912 50.7915C34.5026 50.8018 34.413 50.7885 34.3312 50.7527C34.2495 50.717 34.1786 50.6602 34.1257 50.5881C34.0322 50.4356 33.9864 50.2585 33.9942 50.0795V46.5423C33.988 46.3462 34.0297 46.1515 34.1156 45.9753C34.1671 45.8952 34.2399 45.8313 34.3258 45.7908C34.4117 45.7503 34.5071 45.7349 34.6013 45.7464C34.6868 45.7434 34.7717 45.7612 34.8488 45.7984C34.9259 45.8356 34.9929 45.8911 35.044 45.96C35.155 46.1057 35.213 46.2852 35.2084 46.4686V46.7966H36.19V46.4101C36.1919 46.1831 36.1507 45.9578 36.0685 45.7464C35.9953 45.5476 35.8825 45.3659 35.7371 45.2124Z" fill="#8E8F99"/>
<path d="M41.6289 45.1691C41.3127 44.9021 40.9136 44.7546 40.5007 44.7521C40.2987 44.7529 40.0984 44.7891 39.9087 44.8589C39.7161 44.9279 39.5384 45.0332 39.3851 45.1691C39.2208 45.3168 39.0897 45.498 39.0005 45.7006C38.9006 45.9323 38.8515 46.183 38.8563 46.4355V50.0744C38.8495 50.3304 38.8987 50.5847 39.0005 50.8195C39.0903 51.0151 39.2215 51.1887 39.3851 51.328C39.5367 51.4688 39.7147 51.5777 39.9087 51.6485C40.0984 51.7183 40.2987 51.7544 40.5007 51.7553C40.7027 51.7549 40.9031 51.7187 41.0926 51.6485C41.29 51.5767 41.4719 51.468 41.6289 51.328C41.7871 51.1861 41.9145 51.013 42.0033 50.8195C42.1051 50.5847 42.1544 50.3304 42.1475 50.0744V46.4355C42.1524 46.183 42.1032 45.9323 42.0033 45.7006C41.9151 45.5001 41.7878 45.3194 41.6289 45.1691ZM41.166 50.0744C41.1743 50.1714 41.1609 50.269 41.1268 50.3601C41.0926 50.4512 41.0386 50.5334 40.9687 50.6008C40.8377 50.7106 40.6725 50.7708 40.5019 50.7708C40.3313 50.7708 40.1662 50.7106 40.0352 50.6008C39.9652 50.5334 39.9112 50.4512 39.8771 50.3601C39.8429 50.269 39.8295 50.1714 39.8379 50.0744V46.4355C39.8295 46.3385 39.8429 46.2409 39.8771 46.1498C39.9112 46.0587 39.9652 45.9764 40.0352 45.9091C40.1662 45.7993 40.3313 45.7391 40.5019 45.7391C40.6725 45.7391 40.8377 45.7993 40.9687 45.9091C41.0386 45.9764 41.0926 46.0587 41.1268 46.1498C41.1609 46.2409 41.1743 46.3385 41.166 46.4355V50.0744Z" fill="#8E8F99"/>
<path d="M49.3673 51.6994V44.8107H48.4136L47.1614 48.4572H47.1437L45.8813 44.8107H44.9377V51.6994H45.9218V47.5087H45.9395L46.9033 50.4712H47.3941L48.3655 47.5087H48.3832V51.6994H49.3673Z" fill="#8E8F99"/>
<path d="M54.9581 45.2937C54.8065 45.1237 54.6153 44.9943 54.4015 44.9173C54.1712 44.8424 53.9302 44.8063 53.6881 44.8105H52.226V51.6993H53.2075V49.0089H53.7134C54.0197 49.0228 54.3244 48.958 54.5988 48.8207C54.822 48.6968 55.0081 48.515 55.1377 48.2943C55.2512 48.1111 55.3277 47.9071 55.3628 47.6942C55.4014 47.435 55.4192 47.173 55.4159 46.911C55.4255 46.5802 55.3932 46.2495 55.3198 45.9269C55.2543 45.6885 55.1299 45.4706 54.9581 45.2937ZM54.4521 47.3941C54.4479 47.5188 54.4168 47.6412 54.361 47.7527C54.3049 47.8586 54.2162 47.9434 54.1081 47.9942C53.9627 48.0593 53.8041 48.0889 53.6451 48.0807H53.1974V45.7387H53.7033C53.8557 45.7312 54.0075 45.7609 54.146 45.8251C54.2475 45.8834 54.3281 45.9724 54.3762 46.0794C54.4299 46.2004 54.4591 46.331 54.4622 46.4634C54.4622 46.6084 54.4622 46.7609 54.4622 46.9211C54.4622 47.0813 54.4723 47.2466 54.4622 47.3941H54.4521Z" fill="#8E8F99"/>
<path d="M59.6077 44.8107H58.8032L57.2854 51.6994H58.2669L58.5553 50.2194H59.8935L60.1819 51.6994H61.1635L59.6077 44.8107ZM58.702 49.2811L59.1852 46.784H59.2029L59.6836 49.2811H58.702Z" fill="#8E8F99"/>
<path d="M65.9497 48.9607H65.932L64.4496 44.8107H63.506V51.6994H64.4875V47.557H64.5078L66.0079 51.6994H66.9312V44.8107H65.9497V48.9607Z" fill="#8E8F99"/>
<path d="M71.9476 44.8107L71.1583 47.5494H71.1381L70.3488 44.8107H69.3091L70.6574 48.7878V51.6994H71.639V48.7878L72.9873 44.8107H71.9476Z" fill="#8E8F99"/>
<path d="M33 53.6445H33.4731V54.9719H33.7943V53.6445H34.2649V53.3724H33V53.6445Z" fill="#8E8F99"/>
<path d="M36.9767 53.3724L36.3569 54.9719H36.6984L36.83 54.6083H37.4675L37.6041 54.9719H37.9532L37.3182 53.3724H36.9767ZM36.9261 54.3387L37.1437 53.7462L37.3612 54.3387H36.9261Z" fill="#8E8F99"/>
<path d="M40.9079 54.3821H41.2773V54.5881C41.1694 54.6746 41.0358 54.722 40.8978 54.7229C40.8333 54.7265 40.7689 54.7145 40.7099 54.688C40.6509 54.6614 40.5991 54.6211 40.5588 54.5703C40.474 54.4485 40.4322 54.3017 40.4399 54.1533C40.4399 53.7973 40.5942 53.6193 40.9003 53.6193C40.9809 53.6112 41.0617 53.6325 41.128 53.6791C41.1944 53.7257 41.2419 53.7947 41.2621 53.8735L41.5783 53.8125C41.51 53.4997 41.2849 53.3421 40.9003 53.3421C40.6947 53.3366 40.4947 53.4103 40.3413 53.5481C40.2607 53.6276 40.1983 53.7239 40.1586 53.8302C40.1188 53.9365 40.1026 54.0502 40.1111 54.1634C40.1017 54.3823 40.1749 54.5966 40.316 54.7636C40.3943 54.8444 40.4892 54.9071 40.594 54.9475C40.6988 54.9879 40.8111 55.0049 40.9231 54.9975C41.1734 55.0045 41.4165 54.9133 41.6011 54.7432V54.1126H40.9079V54.3821Z" fill="#8E8F99"/>
<path d="M44.9226 53.3724H44.5988V54.9719H45.7194V54.6998H44.9226V53.3724Z" fill="#8E8F99"/>
<path d="M48.3175 53.3724H47.9937V54.9719H48.3175V53.3724Z" fill="#8E8F99"/>
<path d="M51.6365 54.4405L50.9813 53.3724H50.6676V54.9719H50.9686V53.9268L51.6112 54.9719H51.9325V53.3724H51.6365V54.4405Z" fill="#8E8F99"/>
<path d="M54.6368 54.2675H55.4337V53.9954H54.6368V53.6445H55.4944V53.3724H54.313V54.9719H55.5273V54.6998H54.6368V54.2675Z" fill="#8E8F99"/>
<path d="M61.9122 54.0031H61.2823V53.3724H60.9611V54.9719H61.2823V54.2726H61.9122V54.9719H62.2335V53.3724H61.9122V54.0031Z" fill="#8E8F99"/>
<path d="M64.9302 54.2675H65.7296V53.9954H64.9302V53.6445H65.7903V53.3724H64.6089V54.9719H65.8206V54.6998H64.9302V54.2675Z" fill="#8E8F99"/>
<path d="M69.0233 54.2676C69.3015 54.2244 69.4432 54.0769 69.4432 53.8226C69.4513 53.7546 69.441 53.6856 69.4134 53.623C69.3858 53.5603 69.3419 53.5063 69.2863 53.4666C69.1415 53.3938 68.9799 53.3614 68.8183 53.3725H68.1404V54.972H68.4617V54.3032H68.5249C68.5934 54.299 68.6619 54.3112 68.7247 54.3388C68.7717 54.3678 68.8108 54.4079 68.8386 54.4558L69.1877 54.9644H69.5722L69.3774 54.6516C69.2913 54.4972 69.1699 54.3656 69.0233 54.2676ZM68.6994 54.0464H68.4617V53.6446H68.7146C68.8248 53.6357 68.9357 53.6486 69.041 53.6827C69.0644 53.7034 69.0828 53.7291 69.095 53.7579C69.1072 53.7867 69.1127 53.8179 69.1113 53.8492C69.1098 53.8804 69.1014 53.911 69.0866 53.9385C69.0718 53.966 69.051 53.9899 69.0258 54.0082C68.9202 54.0406 68.8096 54.0535 68.6994 54.0464Z" fill="#8E8F99"/>
<path d="M72.1096 54.2675H72.9064V53.9954H72.1096V53.6445H72.9697V53.3724H71.7858V54.9719H73V54.6998H72.1096V54.2675Z" fill="#8E8F99"/>
</g>
<defs>
<filter id="filter0_d_555981_590" x="-4" y="0" width="112" height="64" filterUnits="userSpaceOnUse" color-interpolation-filters="sRGB">
<feFlood flood-opacity="0" result="BackgroundImageFix"/>
<feColorMatrix in="SourceAlpha" type="matrix" values="0 0 0 0 0 0 0 0 0 0 0 0 0 0 0 0 0 0 127 0" result="hardAlpha"/>
<feOffset dy="4"/>
<feGaussianBlur stdDeviation="2"/>
<feComposite in2="hardAlpha" operator="out"/>
<feColorMatrix type="matrix" values="0 0 0 0 0 0 0 0 0 0 0 0 0 0 0 0 0 0 0.25 0"/>
<feBlend mode="normal" in2="BackgroundImageFix" result="effect1_dropShadow_555981_590"/>
<feBlend mode="normal" in="SourceGraphic" in2="effect1_dropShadow_555981_590" result="shape"/>
</filter>
</defs>
</svg>
